# xmcd
#
# Track frame offsets:
#	150
#	18122
#	41936
#	69273
#	83207
#	116452
#	140529
#	155672
#	181356
#	208350
#
# Disc length: 3153 seconds
#
# Revision: 0
# Processed by: cddbd v1.5.2PL0 Copyright (c) Steve Scherf et al.
# Submitted via: EasyCDDAExtractor 12.0.1.1
#
DISCID=8a0c4f0a
DTITLE=Quintet of Four
DYEAR=1900
DGENRE=
TTITLE0=Minor Swing
TTITLE1=Blue Rondo a la Turk
TTITLE2=Fade to Black
TTITLE3=Sertao
TTITLE4=Russian Folk Theme
TTITLE5=Lullaby of Mother Bear
TTITLE6=Escualo
TTITLE7=Tango pour Claude
TTITLE8=Round of the Goblins
TTITLE9=Love Story
EXTD=
EXTT0=
EXTT1=
EXTT2=
EXTT3=
EXTT4=
EXTT5=
EXTT6=
EXTT7=
EXTT8=
EXTT9=
PLAYORDER=
